<?xml version="1.0" encoding="UTF-8" standalone="no"?>
<!-- Created with Inkscape (http://www.inkscape.org/) -->

<svg
   width="95mm"
   height="95mm"
   viewBox="0 0 95 95"
   version="1.1"
   id="svg5"
   inkscape:version="1.1.1 (eb90963e84, 2021-10-02)"
   sodipodi:docname="flutter.svg"
   xmlns:inkscape="http://www.inkscape.org/namespaces/inkscape"
   xmlns:sodipodi="http://sodipodi.sourceforge.net/DTD/sodipodi-0.dtd"
   xmlns="http://www.w3.org/2000/svg"
   xmlns:svg="http://www.w3.org/2000/svg">
  <sodipodi:namedview
     id="namedview7"
     pagecolor="#505050"
     bordercolor="#eeeeee"
     borderopacity="1"
     inkscape:pageshadow="0"
     inkscape:pageopacity="0"
     inkscape:pagecheckerboard="0"
     inkscape:document-units="mm"
     showgrid="false"
     inkscape:zoom="1.0633188"
     inkscape:cx="43.260779"
     inkscape:cy="134.01437"
     inkscape:window-width="1874"
     inkscape:window-height="1016"
     inkscape:window-x="46"
     inkscape:window-y="27"
     inkscape:window-maximized="1"
     inkscape:current-layer="layer1" />
  <defs
     id="defs2">
    <linearGradient
       x1="122.89636"
       y1="246.97452"
       x2="154.97652"
       y2="258.53494"
       id="linearGradient-1"
       gradientTransform="scale(0.99998778,1.0000122)"
       gradientUnits="userSpaceOnUse">
      <stop
         stop-color="#000000"
         offset="0%"
         id="stop1016" />
      <stop
         stop-color="#000000"
         stop-opacity="0"
         offset="100%"
         id="stop1018" />
    </linearGradient>
  </defs>
  <g
     inkscape:label="Calque 1"
     inkscape:groupmode="layer"
     id="layer1">
    <rect
       style="fill:#000019;fill-opacity:0.47058824;stroke:none;stroke-width:0.665885;stroke-linecap:round;stroke-linejoin:round;stroke-miterlimit:4;stroke-dasharray:none;stroke-opacity:1"
       id="rect3699"
       width="95"
       height="95"
       x="0"
       y="0"
       ry="0" />
    <g
       id="g8614"
       transform="matrix(0.74678722,0.74678722,-0.74678722,0.74678722,47.530076,-15.731102)"
       style="stroke-width:0.875;stroke-miterlimit:4;stroke-dasharray:none">
      <g
         id="g2528"
         style="stroke:#fffffe;stroke-width:2.16763;stroke-miterlimit:4;stroke-dasharray:none;stroke-opacity:1"
         transform="matrix(0.28543478,-0.28543478,0.28543478,0.28543478,-42.983142,12.220718)">
        <path
           style="fill:none;stroke:#fffffe;stroke-width:2.16763;stroke-linecap:round;stroke-linejoin:round;stroke-miterlimit:4;stroke-dasharray:none;stroke-opacity:1"
           d="m 77.189181,138.37295 c 0,0 32.720239,-0.42489 35.370029,0.39793 4.30916,0.80754 6.9977,3.72481 6.9977,3.72481 l 10.85691,10.89766 -0.0201,25.77465 -9.40118,3.00249 z"
           id="path1083"
           sodipodi:nodetypes="ccccccc" />
        <path
           style="fill:none;stroke:#fffffe;stroke-width:2.16763;stroke-linecap:round;stroke-linejoin:round;stroke-miterlimit:4;stroke-dasharray:none;stroke-opacity:1"
           d="m 77.236297,138.37717 c 0,0 -0.424892,32.72024 0.39793,35.37003 0.807539,4.30916 3.724804,6.99771 3.724804,6.99771 l 10.897648,10.85692 25.774651,-0.0201 3.00249,-9.40118 z"
           id="path1684"
           sodipodi:nodetypes="ccccccc" />
        <path
           style="fill:none;stroke:#fffffe;stroke-width:2.16763;stroke-linecap:round;stroke-linejoin:round;stroke-miterlimit:4;stroke-dasharray:none;stroke-opacity:1"
           d="m 77.236295,138.37717 20.324744,-13.49056 c 2.536521,-1.43141 3.050241,-1.71913 13.322831,9.02759 l 13.95942,39.5769 -3.85498,8.67939"
           id="path1881"
           sodipodi:nodetypes="ccccc" />
        <path
           style="fill:none;stroke:#fffffe;stroke-width:2.16763;stroke-linecap:round;stroke-linejoin:round;stroke-miterlimit:4;stroke-dasharray:none;stroke-opacity:1"
           d="m 77.194977,138.41849 -13.49056,20.32474 c -1.43141,2.53652 -1.719128,3.05024 9.027587,13.32284 l 39.576906,13.95942 8.67939,-3.85499"
           id="path2442"
           sodipodi:nodetypes="ccccc" />
      </g>
      <g
         id="g8599"
         transform="rotate(-45,47.487287,46.351316)"
         style="stroke-width:0.875;stroke-miterlimit:4;stroke-dasharray:none">
        <g
           id="g8425"
           transform="matrix(0.35132421,0,0,0.35132421,-24.922455,27.980593)"
           style="stroke-width:2.49058;stroke-miterlimit:4;stroke-dasharray:none">
          <polygon
             fill="#47c5fb"
             points="255.26771,0.00054935622 157.66578,0.00054935622 0.00054935622,157.66578 48.800961,206.4662 "
             id="polygon1023"
             transform="matrix(0.26458333,0,0,0.26458333,108.69386,39.728111)"
             style="fill:none;stroke:#fffffd;stroke-width:9.4132;stroke-miterlimit:4;stroke-dasharray:none;stroke-opacity:1" />
          <path
             id="polygon1027"
             style="fill:none;stroke:#fffffd;stroke-width:9.4132;stroke-miterlimit:4;stroke-dasharray:none;stroke-opacity:1"
             transform="matrix(0.26458333,0,0,0.26458333,108.69386,39.728111)"
             d="m 169.84227,230.82081 -48.70922,48.71031 37.08154,37.08155 h 97.05257 z m -97.693105,-1.00533 48.983895,49.71564 48.71032,-48.71032 85.42489,-85.4238 h -98.70064 z" />
        </g>
        <g
           id="g8430"
           transform="matrix(0.51607298,0,0,0.51607298,118.38027,14.786047)"
           style="stroke-width:1.6955;stroke-miterlimit:4;stroke-dasharray:none">
          <path
             style="fill:none;stroke:#ffffff;stroke-width:1.6955;stroke-linecap:round;stroke-linejoin:round;stroke-miterlimit:4;stroke-dasharray:none;stroke-opacity:1"
             d="m -112.99071,99.357332 17.874694,9.989028 c 1.880077,0.76539 3.153761,-0.13276 3.153761,-0.13276 l 18.034114,-9.962379 -5.122565,-30.956445 c 0,0 -0.557705,-2.306684 -2.399711,-0.506428 z"
             id="path4851"
             sodipodi:nodetypes="ccccccc" />
          <path
             style="fill:none;stroke:#ffffff;stroke-width:1.6955;stroke-linecap:round;stroke-linejoin:round;stroke-miterlimit:4;stroke-dasharray:none;stroke-opacity:1"
             d="m -112.99071,99.357332 6.36539,-41.770524 c 0,0 0.55771,-2.306684 2.39971,-0.506428 l 6.927693,12.425114"
             id="path7485" />
          <path
             style="fill:none;stroke:#ffffff;stroke-width:1.6955;stroke-linecap:round;stroke-linejoin:round;stroke-miterlimit:4;stroke-dasharray:none;stroke-opacity:1"
             d="m -112.99071,99.357332 18.306788,-34.804411 c 0,0 1.220216,-2.035412 2.441545,0.232239 l 4.770577,9.063117"
             id="path7740" />
        </g>
      </g>
    </g>
  </g>
</svg>
