<?xml version="1.0" encoding="UTF-8" standalone="no"?>
<!-- Created with Inkscape (http://www.inkscape.org/) -->

<svg
   width="25"
   height="25"
   viewBox="0 0 6.6145832 6.6145835"
   version="1.1"
   id="svg5"
   inkscape:version="1.1.1 (eb90963e84, 2021-10-02)"
   sodipodi:docname="github-icon-dark.svg"
   xmlns:inkscape="http://www.inkscape.org/namespaces/inkscape"
   xmlns:sodipodi="http://sodipodi.sourceforge.net/DTD/sodipodi-0.dtd"
   xmlns="http://www.w3.org/2000/svg"
   xmlns:svg="http://www.w3.org/2000/svg">
  <sodipodi:namedview
     id="namedview7"
     pagecolor="#505050"
     bordercolor="#eeeeee"
     borderopacity="1"
     inkscape:pageshadow="0"
     inkscape:pageopacity="0"
     inkscape:pagecheckerboard="0"
     inkscape:document-units="mm"
     showgrid="false"
     inkscape:zoom="11.313709"
     inkscape:cx="5.4800773"
     inkscape:cy="17.191533"
     inkscape:window-width="1874"
     inkscape:window-height="1016"
     inkscape:window-x="46"
     inkscape:window-y="27"
     inkscape:window-maximized="1"
     inkscape:current-layer="layer1"
     units="px" />
  <defs
     id="defs2" />
  <g
     inkscape:label="Calque 1"
     inkscape:groupmode="layer"
     id="layer1">
    <path
       fill-rule="evenodd"
       clip-rule="evenodd"
       d="M 3.3067891,0 C 1.4797919,0 0,1.5174483 0,3.3909453 c 0,1.5004934 0.94657182,2.7678589 2.261023,3.2171604 0.1653408,0.029672 0.2273372,-0.07206 0.2273372,-0.16107 0,-0.080531 -0.00382,-0.3475721 -0.00382,-0.6315633 C 1.6537001,5.9723021 1.4387623,5.6077764 1.3726285,5.4170357 1.3354561,5.3195465 1.1742145,5.018599 1.0336852,4.9380646 0.91796692,4.8744774 0.75260072,4.7176527 1.029866,4.7134141 1.2902764,4.7092367 1.4762784,4.9592582 1.5382875,5.060986 1.8358958,5.5738669 2.311244,5.4297518 2.5013833,5.3407386 2.530281,5.1203282 2.6171013,4.9719743 2.7121965,4.8872001 1.9764378,4.8024257 1.2076061,4.5099582 1.2076061,3.2129204 c 0,-0.3687644 0.1281427,-0.6739494 0.3389433,-0.9113159 -0.033099,-0.084774 -0.1488041,-0.4323454 0.033099,-0.8986013 0,0 0.2769471,-0.089016 0.9093613,0.3475721 0.2645478,-0.076288 0.5456194,-0.1144468 0.8267037,-0.1144468 0.2810717,0 0.562156,0.038145 0.8266909,0.1144468 C 4.7748317,1.3097526 5.0517786,1.4030032 5.0517786,1.4030032 5.2336431,1.8692591 5.1178506,2.21683 5.0848776,2.3016045 5.2956908,2.538971 5.423821,2.8399175 5.423821,3.2129204 c 0,1.3012753 -0.7729566,1.5895066 -1.5087151,1.6742797 0.1199192,0.1059609 0.2232124,0.3094236 0.2232124,0.6273246 0,0.4535401 -0.00382,0.8180657 -0.00382,0.932511 0,0.089017 0.061996,0.1949783 0.2273372,0.16107 C 5.6680283,6.1588042 6.6145874,4.8872001 6.6145874,3.3909453 6.6145874,1.5174483 5.1348081,0 3.3077982,0 Z"
       fill="#1b1f23"
       id="path878"
       style="fill:#000019;fill-opacity:1;stroke:none;stroke-width:0.203756;stroke-miterlimit:4;stroke-dasharray:none;stroke-opacity:1" />
  </g>
</svg>
