<?xml version="1.0" encoding="UTF-8" standalone="no"?>
<!-- Created with Inkscape (http://www.inkscape.org/) -->

<svg
   width="50"
   height="50"
   viewBox="0 0 13.229166 13.229167"
   version="1.1"
   id="svg5"
   inkscape:version="1.1.1 (eb90963e84, 2021-10-02)"
   sodipodi:docname="interet-video.svg"
   xmlns:inkscape="http://www.inkscape.org/namespaces/inkscape"
   xmlns:sodipodi="http://sodipodi.sourceforge.net/DTD/sodipodi-0.dtd"
   xmlns="http://www.w3.org/2000/svg"
   xmlns:svg="http://www.w3.org/2000/svg">
  <sodipodi:namedview
     id="namedview7"
     pagecolor="#505050"
     bordercolor="#eeeeee"
     borderopacity="1"
     inkscape:pageshadow="0"
     inkscape:pageopacity="0"
     inkscape:pagecheckerboard="0"
     inkscape:document-units="mm"
     showgrid="false"
     units="px"
     width="50px"
     inkscape:zoom="3.0075196"
     inkscape:cx="34.91249"
     inkscape:cy="83.623727"
     inkscape:window-width="1874"
     inkscape:window-height="1016"
     inkscape:window-x="46"
     inkscape:window-y="27"
     inkscape:window-maximized="1"
     inkscape:current-layer="layer1" />
  <defs
     id="defs2" />
  <g
     inkscape:label="Calque 1"
     inkscape:groupmode="layer"
     id="layer1">
    <path
       id="path1970"
       style="fill:none;stroke:#f0f0f0;stroke-width:0.591345;stroke-linecap:round;stroke-linejoin:round;stroke-miterlimit:4;stroke-dasharray:none"
       d="M 12.933494,6.6145831 A 6.3189107,6.3189107 0 0 1 6.6145837,12.933493 6.3189107,6.3189107 0 0 1 0.29567258,6.6145831 6.3189107,6.3189107 0 0 1 6.6145837,0.29567258 6.3189107,6.3189107 0 0 1 12.933494,6.6145831 Z M 9.3486423,9.5561068 9.8684438,10.456429 M 3.8805242,9.5561068 3.360723,10.456429 M 5.3928276,2.45536 6.5740495,3.6365817 7.8363389,1.4502321 m 0.1919497,5.232665 -1.11559,0.6440861 -1.1155898,0.6440864 V 6.6828971 5.3947253 L 6.9126986,6.0388109 Z M 3.3328657,3.8072519 h 6.5634344 c 0.7596319,0 1.3711769,0.6115442 1.3711769,1.3711748 v 3.0089411 c 0,0.759631 -0.611545,1.3711754 -1.3711769,1.3711754 H 3.3328657 c -0.759631,0 -1.3711753,-0.6115444 -1.3711753,-1.3711754 V 5.1784267 c 0,-0.7596306 0.6115443,-1.3711748 1.3711753,-1.3711748 z" />
  </g>
</svg>
