<?xml version="1.0" encoding="UTF-8" standalone="no"?>
<!-- Created with Inkscape (http://www.inkscape.org/) -->

<svg
   width="95mm"
   height="95mm"
   viewBox="0 0 95 95"
   version="1.1"
   id="svg5"
   inkscape:version="1.1.1 (eb90963e84, 2021-10-02)"
   sodipodi:docname="js-html-css.svg"
   xmlns:inkscape="http://www.inkscape.org/namespaces/inkscape"
   xmlns:sodipodi="http://sodipodi.sourceforge.net/DTD/sodipodi-0.dtd"
   xmlns="http://www.w3.org/2000/svg"
   xmlns:svg="http://www.w3.org/2000/svg">
  <sodipodi:namedview
     id="namedview7"
     pagecolor="#505050"
     bordercolor="#eeeeee"
     borderopacity="1"
     inkscape:pageshadow="0"
     inkscape:pageopacity="0"
     inkscape:pagecheckerboard="0"
     inkscape:document-units="mm"
     showgrid="false"
     inkscape:zoom="1.28"
     inkscape:cx="100.78125"
     inkscape:cy="203.51563"
     inkscape:window-width="1874"
     inkscape:window-height="1016"
     inkscape:window-x="46"
     inkscape:window-y="27"
     inkscape:window-maximized="1"
     inkscape:current-layer="g7621">
    <inkscape:grid
       type="xygrid"
       id="grid1319" />
  </sodipodi:namedview>
  <defs
     id="defs2" />
  <g
     inkscape:label="Calque 1"
     inkscape:groupmode="layer"
     id="layer1">
    <g
       id="g7621"
       transform="matrix(0.80084237,-0.80084237,0.80084237,0.80084237,-189.10039,-19.761908)">
      <rect
         style="fill:#000019;fill-opacity:0.46942726;stroke:none;stroke-width:0.600001;stroke-linecap:round;stroke-linejoin:round;stroke-miterlimit:4;stroke-dasharray:none;stroke-opacity:1"
         id="rect6542"
         width="83.880608"
         height="83.880608"
         x="166.9669"
         y="17.448851"
         ry="0"
         transform="rotate(45)" />
      <g
         id="g866"
         transform="translate(58.991286,-58.986305)">
        <g
           id="g853">
          <g
             id="g5402"
             transform="matrix(0.02585451,0.02585451,-0.02585451,0.02585451,31.420718,246.89198)"
             style="stroke-width:21.1243;stroke-miterlimit:4;stroke-dasharray:none">
            <path
               style="fill:none;stroke:#fffffd;stroke-width:21.1243;stroke-linecap:round;stroke-linejoin:round;stroke-miterlimit:4;stroke-dasharray:none;stroke-opacity:1"
               d="m -358.79412,-241.44665 h 57.86342 V 148.16706 L -471.57106,102.10324 V -33.950578 l 57.87253,15.588605 -0.0455,66.643075 54.2692,14.792689 z"
               id="path2992"
               sodipodi:nodetypes="ccccccccc" />
            <path
               style="fill:none;stroke:#fffffd;stroke-width:21.1243;stroke-linecap:round;stroke-linejoin:round;stroke-miterlimit:4;stroke-dasharray:none;stroke-opacity:1"
               d="m -255.54756,-239.85823 186.297527,-0.90767 -4.99214,69.43611 -123.441967,0.45383 v 101.658092 l 115.726847,-12.934177 -15.65716,190.382005 -156.798527,40.84477 -1.13458,-68.982278 113.45769,-30.179746 1.58841,-56.2750142 -112.55003,19.2878072 z"
               id="path4305" />
            <path
               style="fill:none;stroke:#fffffd;stroke-width:21.1243;stroke-linecap:round;stroke-linejoin:round;stroke-miterlimit:4;stroke-dasharray:none;stroke-opacity:1"
               d="m -569.82539,-370.10766 581.811035,0.22691 -53.552029,593.83755 -237.807316,67.16695 -236.44583,-66.71312 -54.00586,-594.5183"
               id="path4701" />
          </g>
          <g
             id="g6147"
             transform="matrix(0.91026238,0.91026238,-0.91026238,0.91026238,139.19558,-1.8910822)">
            <path
               id="path5439"
               style="fill:none;stroke:#fffffb;stroke-width:0.599993;stroke-linecap:round;stroke-linejoin:round;stroke-miterlimit:4;stroke-dasharray:none;stroke-opacity:1"
               d="m 104.13907,200.65898 -4.251863,-1.13931 -0.219885,-3.32829 h 2.158168 l 0.22398,1.5657 1.91121,0.58703 2.43791,-0.4723 0.32618,-2.60505 h -7.050028 l -0.321901,-2.18021 4.830059,-2.00714 h -5.13069 l -0.02129,-2.26433 m 2e-6,0 h 10.314998 v 2.35857 l -4.55532,1.8784 h 4.18716 l -0.43591,6.42718 -4.40279,1.17975" />
            <path
               style="fill:none;stroke:#fffffd;stroke-width:0.6;stroke-linecap:round;stroke-linejoin:round;stroke-miterlimit:4;stroke-dasharray:none;stroke-opacity:1"
               d="m 95.927766,185.34906 16.521554,0.006 -1.52069,16.86307 -6.75297,1.90732 -6.714292,-1.89443 -1.533602,-16.8824"
               id="path5562" />
          </g>
        </g>
        <g
           id="g6151"
           transform="matrix(0.91026238,0.91026238,-0.91026238,0.91026238,111.78911,-48.941695)">
          <path
             style="fill:none;stroke:#fffffe;stroke-width:0.6;stroke-linecap:round;stroke-linejoin:round;stroke-miterlimit:4;stroke-dasharray:none;stroke-opacity:1"
             d="m 132.9384,187.08866 h -10.36007 l 0.46567,6.23724 h 7.14426 l -0.13624,2.80403 -2.13761,0.57277 -2.33396,-0.62538 v -1.59204 h -2.31425 l 0.11483,3.09317 4.40623,1.18065 4.26049,-1.14159 0.55397,-6.32497 h -7.52781 l -0.18066,-1.96063 h 7.88225 z"
             id="path5845" />
          <path
             style="fill:none;stroke:#fffffd;stroke-width:0.6;stroke-linecap:round;stroke-linejoin:round;stroke-miterlimit:4;stroke-dasharray:none;stroke-opacity:1"
             d="m 119.49745,183.53824 16.52155,0.006 -1.52069,16.86307 -6.75297,1.90732 -6.71429,-1.89443 -1.5336,-16.8824"
             id="path5927" />
        </g>
      </g>
    </g>
  </g>
  <style
     id="style2488">.st0{fill:#d4b830}.st1,.st2{opacity:.986;fill:#ebebeb;fill-opacity:0;enable-background:new}.st2{fill-opacity:.9216}.st3{fill:#fdd83c}</style>
</svg>
