<?xml version="1.0" encoding="UTF-8" standalone="no"?>
<!-- Created with Inkscape (http://www.inkscape.org/) -->

<svg
   width="95mm"
   height="95mm"
   viewBox="0 0 95 95"
   version="1.1"
   id="svg5"
   inkscape:version="1.1.1 (eb90963e84, 2021-10-02)"
   sodipodi:docname="js-html-scss.svg"
   xmlns:inkscape="http://www.inkscape.org/namespaces/inkscape"
   xmlns:sodipodi="http://sodipodi.sourceforge.net/DTD/sodipodi-0.dtd"
   xmlns="http://www.w3.org/2000/svg"
   xmlns:svg="http://www.w3.org/2000/svg">
  <sodipodi:namedview
     id="namedview7"
     pagecolor="#505050"
     bordercolor="#eeeeee"
     borderopacity="1"
     inkscape:pageshadow="0"
     inkscape:pageopacity="0"
     inkscape:pagecheckerboard="0"
     inkscape:document-units="mm"
     showgrid="false"
     inkscape:zoom="1.8101934"
     inkscape:cx="158.5466"
     inkscape:cy="211.85582"
     inkscape:window-width="1874"
     inkscape:window-height="1016"
     inkscape:window-x="46"
     inkscape:window-y="27"
     inkscape:window-maximized="1"
     inkscape:current-layer="g7621">
    <inkscape:grid
       type="xygrid"
       id="grid1319" />
  </sodipodi:namedview>
  <defs
     id="defs2" />
  <g
     inkscape:label="Calque 1"
     inkscape:groupmode="layer"
     id="layer1">
    <g
       id="g7621"
       transform="matrix(0.80084237,-0.80084237,0.80084237,0.80084237,-189.10039,-19.761908)">
      <rect
         style="fill:#000019;fill-opacity:0.469427;stroke:none;stroke-width:0.600001;stroke-linecap:round;stroke-linejoin:round;stroke-miterlimit:4;stroke-dasharray:none;stroke-opacity:1"
         id="rect6542"
         width="83.880608"
         height="83.880608"
         x="167.06389"
         y="17.27553"
         ry="0"
         transform="rotate(45)" />
      <g
         id="g1443"
         transform="matrix(1.1163088,0,0,1.1163088,52.334803,-62.950549)">
        <g
           id="g1432">
          <g
             id="g5402"
             transform="matrix(0.02585451,0.02585451,-0.02585451,0.02585451,34.180784,231.77936)"
             style="stroke-width:21.1243;stroke-miterlimit:4;stroke-dasharray:none">
            <path
               style="fill:none;stroke:#fffffd;stroke-width:21.1243;stroke-linecap:round;stroke-linejoin:round;stroke-miterlimit:4;stroke-dasharray:none;stroke-opacity:1"
               d="m -358.79412,-241.44665 h 57.86342 V 148.16706 L -471.57106,102.10324 V -33.950578 l 57.87253,15.588605 -0.0455,66.643075 54.2692,14.792689 z"
               id="path2992"
               sodipodi:nodetypes="ccccccccc" />
            <path
               style="fill:none;stroke:#fffffd;stroke-width:21.1243;stroke-linecap:round;stroke-linejoin:round;stroke-miterlimit:4;stroke-dasharray:none;stroke-opacity:1"
               d="m -255.54756,-239.85823 186.297527,-0.90767 -4.99214,69.43611 -123.441967,0.45383 v 101.658092 l 115.726847,-12.934177 -15.65716,190.382005 -156.798527,40.84477 -1.13458,-68.982278 113.45769,-30.179746 1.58841,-56.2750142 -112.55003,19.2878072 z"
               id="path4305" />
            <path
               style="fill:none;stroke:#fffffd;stroke-width:21.1243;stroke-linecap:round;stroke-linejoin:round;stroke-miterlimit:4;stroke-dasharray:none;stroke-opacity:1"
               d="m -569.82539,-370.10766 581.811035,0.22691 -53.552029,593.83755 -237.807316,67.16695 -236.44583,-66.71312 -54.00586,-594.5183"
               id="path4701" />
          </g>
          <g
             id="g6151"
             transform="matrix(0.91026238,0.91026238,-0.91026238,0.91026238,110.06083,-45.601868)">
            <path
               style="fill:none;stroke:#fffffe;stroke-width:0.6;stroke-linecap:round;stroke-linejoin:round;stroke-miterlimit:4;stroke-dasharray:none;stroke-opacity:1"
               d="m 132.9384,187.08866 h -10.36007 l 0.46567,6.23724 h 7.14426 l -0.13624,2.80403 -2.13761,0.57277 -2.33396,-0.62538 v -1.59204 h -2.31425 l 0.11483,3.09317 4.40623,1.18065 4.26049,-1.14159 0.55397,-6.32497 h -7.52781 l -0.18066,-1.96063 h 7.88225 z"
               id="path5845" />
            <path
               style="fill:none;stroke:#fffffd;stroke-width:0.6;stroke-linecap:round;stroke-linejoin:round;stroke-miterlimit:4;stroke-dasharray:none;stroke-opacity:1"
               d="m 119.49745,183.53824 16.52155,0.006 -1.52069,16.86307 -6.75297,1.90732 -6.71429,-1.89443 -1.5336,-16.8824"
               id="path5927" />
          </g>
        </g>
        <path
           fill="#cf649a"
           d="m 66.707125,227.23898 c -0.700465,-0.6926 -1.470891,-1.12846 -2.225835,-1.38524 0.182893,-0.55645 0.31912,-1.06624 0.529253,-1.33855 0.245147,-0.31519 0.3736,-0.52925 0.751007,-0.82106 0.377453,-0.29192 1.04675,-0.57209 1.085663,-0.611 0.03112,-0.0389 0.163391,-0.24908 -0.233473,-0.65373 -0.396872,-0.40465 -0.82495,-0.66929 -0.968923,-0.60314 -0.143979,0.0662 -0.463062,0.22958 -0.762688,0.42804 -0.435816,0.29573 -2.463162,0.85996 -3.560491,1.12457 0.128414,-0.4008 0.245147,-0.75101 0.408583,-0.96122 0.245148,-0.31512 0.373554,-0.52921 0.751007,-0.82098 0.377491,-0.29188 1.04675,-0.57201 1.085656,-0.61092 0.03111,-0.0389 0.163436,-0.24904 -0.233436,-0.6537 -0.39694,-0.40473 -0.824942,-0.66929 -0.968914,-0.60314 -0.14398,0.0662 -0.435824,0.27239 -0.762689,0.42804 -0.323012,0.1595 -3.459362,1.35022 -4.276522,1.66152 -0.416366,0.15955 -0.758752,0.27632 -0.996162,0.35022 -0.237364,0.074 -0.01559,0.008 -0.03891,0.0156 -0.202343,0.0622 -0.315192,0.0973 -0.315192,0.0973 l -0.0038,0.004 c -0.151755,0.0428 -0.303472,0.0778 -0.330757,0.0505 -0.01946,-0.0195 0.20235,-0.31908 0.626454,-0.61088 0.895032,-0.60708 2.416465,-1.42809 2.455417,-1.47474 0.01946,-0.0195 0.291843,-0.15963 0.105028,-0.5565 -0.179002,-0.38912 -0.455234,-0.31515 -0.478628,-0.33854 -0.02332,-0.0234 -0.105059,0.0195 -0.105059,0.0195 0,0 1.634283,-1.00391 0.715948,-1.92224 -0.575905,-0.57591 -1.996208,-0.74323 -2.961239,-0.56423 -0.385236,-0.11284 -1.202357,-0.35414 -2.070144,-0.60704 -0.330757,-0.0973 -0.677078,-0.19456 -1.000051,-0.29184 l 0.004,-0.0895 c 0.07394,-2.29972 -1.144027,-5.19871 0.536993,-6.70851 0.610926,-0.54867 2.342534,-1.87559 7.914843,-0.008 4.564436,1.52927 6.587883,4.38545 6.085869,5.73567 -0.719876,1.92617 -5.085861,2.47872 -8.607401,-0.33461 -1.342484,-1.07009 -1.509842,-2.17136 -1.494239,-2.50597 0.0156,-0.35021 0,-0.38134 -0.09728,-0.40858 -0.155647,-0.0467 -0.256822,0.179 -0.315192,0.3152 -0.151755,0.33853 -0.198451,1.16348 0.245147,2.0429 0.38909,0.77043 1.700481,2.29194 4.074142,3.34258 2.661612,1.17516 6.222104,0.61093 7.506218,-1.55261 1.307462,-2.20245 -1.027293,-5.689 -4.755105,-7.46341 -2.221943,-1.05457 -4.906904,-1.91843 -7.377848,-2.00014 -2.934003,-0.10118 -4.412678,0.89498 -4.82515,1.5098 -1.478636,2.18692 -0.147868,5.90691 -0.01946,7.80195 -0.07779,-0.0234 -0.15172,-0.0428 -0.21791,-0.0622 -0.754863,-0.25686 -3.688904,-1.17515 -5.237583,-0.59151 -1.751063,0.66152 -1.988467,2.15969 -1.68495,2.69668 0.937791,1.66156 2.918437,2.34253 4.708412,1.99232 1.786045,-0.35414 3.089652,-1.82889 3.39317,-2.79392 l 0.01164,-0.0351 0.630382,0.16343 c 0.408621,0.10511 0.801637,0.21795 1.144066,0.31905 -0.463019,0.21406 -0.953356,0.52532 -1.583699,1.06235 -0.739376,0.63042 -1.346373,1.79775 -1.326917,2.51764 0.01171,0.31514 0.202346,0.51364 0.322974,0.63427 0.428038,0.42803 0.976743,0.26846 1.614869,0.0584 0.782141,-0.25293 1.614869,-0.6187 1.614869,-0.6187 0,0 -1.914495,1.3308 -1.116789,2.12851 0.291844,0.29184 0.961139,0.20624 1.288,0.14398 l -0.0038,0.004 c 0,0 0.01946,-0.004 0.06223,-0.0156 a 1.9882548,1.9882548 0 0 0 0.120594,-0.0272 l 0.0078,-0.008 c 0.319083,-0.0856 1.042851,-0.28795 2.198558,-0.66541 1.49031,-0.48644 3.210277,-1.24131 3.210277,-1.24131 0,0 -0.256821,0.35022 -0.610926,0.99228 -0.210208,0.38133 -0.34636,0.89105 -0.517572,1.35022 -0.280169,0.0467 -0.443644,0.0701 -0.443644,0.0701 v 0.008 c -0.21787,0.0312 -0.455317,0.0585 -0.696498,0.0818 -0.871639,0.0778 -1.887295,0.14401 -2.105203,0.2374 -0.256783,0.10892 -0.377415,0.26067 -0.342431,0.51365 0.02725,0.18288 0.198497,0.38519 0.412475,0.56812 0.381383,0.3346 0.719877,0.49419 0.898917,0.56419 0.264603,0.12452 0.591469,0.24126 0.961139,0.29963 0.677042,0.1012 1.322982,-0.07 1.844415,-0.63813 0.287952,-0.3113 0.486403,-0.70432 0.645949,-1.10511 0.0856,-0.0156 0.171287,-0.0311 0.260712,-0.0506 1.513734,-0.28411 2.976805,-0.79772 2.976805,-0.79772 0,0 -0.256822,0.35022 -0.610927,0.99228 -0.17904,0.32682 -0.307446,0.75105 -0.447535,1.15573 -1.046742,-0.10506 -1.953403,0.0778 -2.435922,0.3113 -0.891096,0.43193 -1.01172,0.91056 -0.743225,1.31914 0.120587,0.18285 0.408577,0.33076 0.642012,0.42411 0.268503,0.13619 0.626537,0.26846 1.019548,0.3269 0.677079,0.10117 1.451434,0.0739 1.972867,-0.48641 0.237365,-0.26071 0.416359,-0.57201 0.560339,-0.89498 0.692644,0.28795 1.443614,0.80544 2.151861,1.70826 1.529262,1.93395 0.789921,3.35814 0.272425,3.74341 -0.517572,0.38528 -1.12846,0.2724 -1.326957,0.22955 -0.194559,-0.0467 -0.26075,-0.0583 -0.303517,0.008 -0.06617,0.0973 -0.0078,0.14787 0.112811,0.23741 0.167358,0.12059 1.280223,0.54088 2.144041,-0.26068 1.116938,-1.02355 1.2687,-3.20654 -0.544584,-4.99656 z M 48.850183,218.3864 c -1.198505,0.0545 -2.24136,-0.51365 -2.381445,-1.05843 -0.15565,-0.58368 0.910513,-1.36198 2.280272,-1.32302 0.832727,0.0234 1.762736,0.20624 2.358098,0.34243 0.132302,0.0311 0.330716,0.0817 0.568121,0.14009 0.03888,0.008 0.06226,0.0156 0.06226,0.0156 0.0428,0.0117 0.09339,0.0234 0.143976,0.0351 -0.688751,1.21018 -1.770518,1.79387 -3.031283,1.84835 z m 7.027597,1.33858 c -0.684861,0.28795 -2.354207,1.1168 -2.537096,0.79382 -0.15958,-0.27632 0.653731,-1.35416 1.895,-1.98069 0.626531,-0.31523 1.517589,-0.54477 1.930102,-0.56816 0.665435,-0.035 1.124568,0.19067 1.066236,0.42029 -0.08565,0.288 -1.926209,1.15575 -2.354242,1.33474 z m 1.801648,5.10143 c -0.128452,-0.0428 -0.237364,-0.0895 -0.249076,-0.14783 -0.01166,-0.0428 0.108912,-0.0389 0.108912,-0.0389 0,0 0.894987,-0.0311 1.280223,-0.074 0.221761,-0.0272 0.482474,-0.0544 0.770464,-0.0934 l -0.04671,0.0467 c -0.560255,0.56035 -1.470808,0.39691 -1.863826,0.30741 z m 3.26861,2.05454 c -0.0156,-0.10895 0.136235,-0.2451 0.797703,-0.4864 0.260758,-0.0973 0.747124,-0.21013 1.354159,-0.17122 -0.07783,0.15565 -0.167245,0.29185 -0.276278,0.39301 -0.704281,0.69658 -1.463071,0.45921 -1.875584,0.26461 z"
           id="path966"
           style="fill:#ffffff;fill-opacity:1;stroke:none;stroke-width:0.0550306;stroke-opacity:1" />
      </g>
    </g>
  </g>
  <style
     id="style2488">.st0{fill:#d4b830}.st1,.st2{opacity:.986;fill:#ebebeb;fill-opacity:0;enable-background:new}.st2{fill-opacity:.9216}.st3{fill:#fdd83c}</style>
</svg>
