<?xml version="1.0" encoding="UTF-8" standalone="no"?>
<!-- Created with Inkscape (http://www.inkscape.org/) -->

<svg
   width="27.530001"
   height="25"
   viewBox="0 0 7.2839792 6.6145835"
   version="1.1"
   id="svg5"
   inkscape:version="1.1.1 (eb90963e84, 2021-10-02)"
   sodipodi:docname="mail-icon-dark-light.svg"
   xmlns:inkscape="http://www.inkscape.org/namespaces/inkscape"
   xmlns:sodipodi="http://sodipodi.sourceforge.net/DTD/sodipodi-0.dtd"
   xmlns="http://www.w3.org/2000/svg"
   xmlns:svg="http://www.w3.org/2000/svg">
  <sodipodi:namedview
     id="namedview7"
     pagecolor="#505050"
     bordercolor="#eeeeee"
     borderopacity="1"
     inkscape:pageshadow="0"
     inkscape:pageopacity="0"
     inkscape:pagecheckerboard="0"
     inkscape:document-units="mm"
     showgrid="false"
     units="px"
     inkscape:zoom="12.030079"
     inkscape:cx="12.718121"
     inkscape:cy="19.908431"
     inkscape:window-width="1874"
     inkscape:window-height="1016"
     inkscape:window-x="46"
     inkscape:window-y="27"
     inkscape:window-maximized="1"
     inkscape:current-layer="layer1" />
  <defs
     id="defs2" />
  <g
     inkscape:label="Calque 1"
     inkscape:groupmode="layer"
     id="layer1">
    <path
       fill="none"
       d="m 360.23626,387.95609 h 0.14657 m 0,0 h -0.14657"
       id="path932"
       style="stroke-width:0.517918;image-rendering:optimizeQuality;shape-rendering:geometricPrecision;text-rendering:geometricPrecision" />
    <path
       fill="url(#a)"
       d="M -171.6763,-90.604194 103.91818,113.72737 381.31811,-90.604194 Z"
       id="path941"
       style="stroke-width:0.517918;image-rendering:optimizeQuality;shape-rendering:geometricPrecision;text-rendering:geometricPrecision" />
    <path
       fill="url(#b)"
       d="M -171.6763,-90.604194 103.91818,113.72737 381.31811,-90.604194 Z"
       id="path956"
       style="stroke-width:0.517918;image-rendering:optimizeQuality;shape-rendering:geometricPrecision;text-rendering:geometricPrecision" />
    <path
       fill="url(#c)"
       d="M -171.6763,-90.604194 103.91818,113.72737 381.31811,-90.604194 Z"
       id="path963"
       style="stroke-width:0.517918;image-rendering:optimizeQuality;shape-rendering:geometricPrecision;text-rendering:geometricPrecision" />
    <path
       fill="url(#d)"
       d="M -171.6763,-90.604194 103.91818,113.72737 381.31811,-90.604194 Z"
       id="path970"
       style="stroke-width:0.517918;image-rendering:optimizeQuality;shape-rendering:geometricPrecision;text-rendering:geometricPrecision" />
    <path
       fill="url(#e)"
       d="M -171.6763,-90.604194 103.91818,113.72737 381.31811,-90.604194 Z"
       id="path977"
       style="stroke-width:0.517918;image-rendering:optimizeQuality;shape-rendering:geometricPrecision;text-rendering:geometricPrecision" />
    <path
       fill="url(#f)"
       d="M -171.6763,-90.604194 103.91818,113.72737 381.31811,-90.604194 Z"
       id="path984"
       style="stroke-width:0.517918;image-rendering:optimizeQuality;shape-rendering:geometricPrecision;text-rendering:geometricPrecision" />
    <path
       fill="url(#g)"
       d="M -171.6763,-90.604194 103.91818,113.72737 381.31811,-90.604194 Z"
       id="path991"
       style="stroke-width:0.517918;image-rendering:optimizeQuality;shape-rendering:geometricPrecision;text-rendering:geometricPrecision" />
    <path
       fill="url(#h)"
       d="M -171.6763,-90.604194 103.91818,113.72737 381.31811,-90.604194 Z"
       id="path998"
       style="stroke-width:0.517918;image-rendering:optimizeQuality;shape-rendering:geometricPrecision;text-rendering:geometricPrecision" />
    <path
       id="path1770"
       style="fill:#ecbba7;fill-opacity:1;stroke:#ecbba7;stroke-width:0.770506;stroke-linejoin:round;stroke-miterlimit:4;stroke-dasharray:none;stroke-opacity:1;image-rendering:optimizeQuality;shape-rendering:geometricPrecision;text-rendering:geometricPrecision"
       d="M 0.46380479,2.3622909 0.46294182,5.7171036 C 0.47557152,6.0899844 0.64249194,6.223082 1.1982232,6.2293306 L 1.1996636,2.8710467 0.46367105,2.362154 Z m 6.43404541,-0.017912 8.63e-4,3.3548127 C 6.8860833,6.0720718 6.7191631,6.2051695 6.1634318,6.211418 L 6.1619914,2.8531342 6.897984,2.3442415 Z M 6.3643779,0.3852532 6.3642302,0.38539112 3.6327285,2.397516 0.91885928,0.38539112 c -0.29347544,0 -0.53360608,0.24013042 -0.53360608,0.53361764 V 1.0686187 L 1.108822,1.5854717 3.6327285,3.3417065 6.1566351,1.6031031 6.897984,1.0735436 V 0.91886093 c 0,-0.29347731 -0.2401306,-0.53360773 -0.5336061,-0.53360773 z" />
  </g>
</svg>
